# xmcd CD database file
#
# Track frame offsets:
#	150
#	13115
#	27742
#	43372
#
# Disc length: 905 seconds
#
# Revision: 0
# Processed by: cddbd v1.5.2PL0 Copyright (c) Steve Scherf et al.
# Submitted via: Feurio! 1.68 - http://www.feurio.com
#
DISCID=34038704
DTITLE=Seeed - Dancehall Caballeros
DYEAR=2001
DGENRE=
TTITLE0=Dancehall Caballeros (Radio Edit)
TTITLE1=Dancehall Caballeros (Jaleel Remix)
TTITLE2=Dancehall Caballeros (Involtinis Gleeed Mix)
TTITLE3=Dancehall Caballeros (Banson Man Remix)
EXTD=
EXTT0=
EXTT1=
EXTT2=
EXTT3=
PLAYORDER=
